<?xml version="1.0" encoding="UTF-8" standalone="no"?>
<!DOCTYPE svg PUBLIC "-//W3C//DTD SVG 1.1//EN" "http://www.w3.org/Graphics/SVG/1.1/DTD/svg11.dtd">
<svg width="100%" height="100%" viewBox="0 0 32 32" version="1.1" xmlns="http://www.w3.org/2000/svg" xmlns:xlink="http://www.w3.org/1999/xlink" xml:space="preserve" xmlns:serif="http://www.serif.com/" style="fill-rule:evenodd;clip-rule:evenodd;stroke-linejoin:round;stroke-miterlimit:2;">
    <g transform="matrix(0.153846,0,0,0.153846,-3.692308,-2.461538)">
        <path d="M208,32L184,32L184,24C184,19.611 180.389,16 176,16C171.611,16 168,19.611 168,24L168,32L88,32L88,24C88,19.611 84.389,16 80,16C75.611,16 72,19.611 72,24L72,32L48,32C39.223,32 32,39.223 32,48L32,208C32,216.777 39.223,224 48,224L208,224C216.777,224 224,216.777 224,208L224,48C224,39.223 216.777,32 208,32ZM72,48L72,56C72,60.389 75.611,64 80,64C84.389,64 88,60.389 88,56L88,48L168,48L168,56C168,60.389 171.611,64 176,64C180.389,64 184,60.389 184,56L184,48L208,48L208,80L48,80L48,48L72,48ZM208,208L48,208L48,96L208,96L208,208ZM140,132C140,138.583 134.583,144 128,144C121.417,144 116,138.583 116,132C116,125.417 121.417,120 128,120C134.583,120 140,125.417 140,132ZM184,132C184,138.583 178.583,144 172,144C165.417,144 160,138.583 160,132C160,125.417 165.417,120 172,120C178.583,120 184,125.417 184,132ZM96,172C96,178.583 90.583,184 84,184C77.417,184 72,178.583 72,172C72,165.417 77.417,160 84,160C90.583,160 96,165.417 96,172ZM140,172C140,178.583 134.583,184 128,184C121.417,184 116,178.583 116,172C116,165.417 121.417,160 128,160C134.583,160 140,165.417 140,172ZM184,172C184,178.583 178.583,184 172,184C165.417,184 160,178.583 160,172C160,165.417 165.417,160 172,160C178.583,160 184,165.417 184,172Z" style="fill:rgb(79,70,229);fill-rule:nonzero;"/>
    </g>
</svg>
